<?xml version="1.0" encoding="utf-8"?>
<svg xmlns="http://www.w3.org/2000/svg" width="256" height="256" viewBox="0 0 256 256">
  <rect width="256" height="256" rx="32" style="fill: rgb(54, 54, 54);"/>
  <path style="display: inline; stroke-width: 0.352778; fill: rgb(255, 255, 255);" d="M 100.554 243.22 C 96.305 240.629 90.302 229.904 83.76 213.22 C 70.377 179.08 54.759 122.229 46.643 78.126 C 44.087 64.233 43.033 41.853 44.584 34.412 C 46.612 24.679 51.785 19.621 60.801 18.554 L 64.977 18.059 L 67.299 22.017 C 72.936 31.637 74.001 37.425 75.893 68.686 C 77.117 88.921 79.087 101.158 81.647 104.417 C 83.406 106.66 85.534 105.484 88.174 100.807 C 93.433 91.485 120.101 62.585 130.203 55.258 C 142.816 46.109 158.059 41.358 174.808 41.358 C 180.458 41.358 180.376 41.184 178.629 49.528 C 178.029 52.377 176.506 56.472 175.24 58.635 C 171.678 64.713 161.039 75.491 146.452 87.803 C 131.279 100.61 111.347 120.477 111.347 122.792 C 111.347 123.65 111.827 124.482 112.415 124.641 C 122.774 127.465 159.58 143.58 182.834 155.473 C 209.371 169.048 225.924 180.11 228.811 186.196 C 230.932 190.66 230.657 199.967 228.271 204.698 C 225.667 209.858 223.493 210.833 216.087 210.152 C 200.415 208.71 188.907 203.513 160.029 184.826 C 133.918 167.933 122.178 162.162 109.738 160.107 C 102.013 158.833 100.588 159.77 100.787 166.011 C 100.971 171.803 103.232 177.019 111.422 190.561 C 121.904 207.887 124.936 218.831 122.501 230.561 C 121.259 236.54 118.71 239.74 112.869 242.65 C 107.61 245.271 104.178 245.431 100.554 243.22 Z"/>
</svg>
